<svg width="103" height="100" viewBox="0 0 103 100" fill="none" xmlns="http://www.w3.org/2000/svg">
<path d="M43.2176 2.80374C41.8994 4.29907 40.6754 5.98131 40.4871 6.54206C40.2988 7.19626 38.3215 6.72897 35.2143 5.14019C32.578 3.83178 28.1526 2.42991 25.5163 2.14953L20.7143 1.58879L21.3734 7.28972C22.1267 13.8318 20.8085 19.4393 15.8182 30.0935C6.96754 49.2523 3.10715 57.9439 1.69481 62.3364L0 67.2897L2.73052 71.028C5.74351 75.2336 10.6396 77.9439 14.0292 77.2897C15.6299 77.0093 17.0422 77.5701 18.6429 79.1589C22.315 82.8037 25.328 81.7757 29.565 75.7009C31.5423 72.8972 34.7436 68.972 36.7208 67.0093C40.2988 63.271 47.9254 58.3178 48.7728 59.1589C49.9027 60.2804 47.4546 65.3271 41.1462 74.7664C34.2728 84.8598 30.3182 93.3645 30.3182 97.6636V100H66.0033H101.688L102.348 93.1776C103.195 84.3925 101.5 66.1682 99.0521 56.5421C95.4742 42.8037 87.7534 29.5327 78.6202 21.4953C72.5943 16.2617 67.8865 13.9252 61.7663 13.3645C57.0585 12.8972 56.6819 12.6168 55.6462 9.62617C54.328 5.51402 49.4319 0 47.2663 0C46.3247 0 44.5358 1.21495 43.2176 2.80374ZM30.5065 8.97196L33.5195 10.4673L31.1656 11.7757C27.6819 13.7383 26.552 13.3645 26.552 10.2804C26.552 7.00935 26.6461 7.00935 30.5065 8.97196ZM49.1494 11.9626C51.9741 20.9346 51.5033 20.5607 58.8475 20.5607C63.8378 20.5607 66.1917 21.028 68.5456 22.5234C73.7241 25.7009 82.2923 35.7944 86.5293 43.5514C92.6495 54.9533 94.4384 62.5234 95.0034 79.1589L95.5683 93.3645L67.1332 93.6449C44.5358 93.8318 38.7923 93.6449 38.7923 92.7103C38.7923 90.9346 42.276 84.486 47.1721 77.1028C53.7631 67.2897 55.7403 62.243 55.7403 55.1402C55.7403 52.8037 56.7761 47.4766 58.0001 43.3645C60.4481 35.2336 60.354 33.1776 57.5293 34.5794C55.1754 35.8879 51.4092 42.5234 50.091 47.6636C49.1494 51.4019 48.4903 52.243 44.7241 54.2056C38.9806 57.1963 31.7306 63.9252 27.0228 70.4673C22.9741 75.9813 21.1851 76.6355 21.6559 72.4299C21.9383 70 21.75 69.9065 19.302 70.4673C12.1461 72.243 11.0162 72.1495 8.37988 69.5327C6.30845 67.5701 5.83767 66.3551 6.30845 64.5794C6.59092 63.1776 10.8279 53.9252 15.6299 43.9252C20.4318 33.9252 24.9513 24.3925 25.6104 22.7103C26.552 20.2804 27.776 19.3458 31.9189 17.757C40.2046 14.6729 44.4416 12.243 45.5715 9.81308C46.8897 6.91589 47.7371 7.47664 49.1494 11.9626Z" fill="#ED6E6E"/>
</svg>
