<svg width="109" height="100" viewBox="0 0 109 100" fill="none" xmlns="http://www.w3.org/2000/svg">
<path d="M48.0629 2.61122C45.2255 5.5172 44.9676 7.73942 46.9451 13.0386C48.7507 17.9103 48.7507 29.9616 46.8592 38.5086C46.1713 42.0129 45.3975 45.0043 45.2255 45.1753C44.7956 45.6026 39.6368 32.2693 38.2611 26.8847C37.3154 23.3804 37.0574 20.1326 37.4873 15.8591C38.0032 10.3035 37.8312 9.70523 35.7677 7.2266C30.351 0.816348 20.6352 4.14968 20.6352 12.5257C20.6352 15.5172 21.1511 16.8847 23.3006 19.2779C24.6763 20.9018 26.2239 23.5514 26.7398 25.0898C27.5996 28.2522 27.7716 37.3975 26.9978 42.2693L26.3959 45.5172L23.9885 42.6966C18.3138 36.2864 16.8521 32.6967 17.0241 26.3719C17.196 19.5343 15.8203 16.2009 12.1232 14.6625C6.53449 12.4403 0 16.8847 0 22.9531C0 25.3462 0.687841 26.7138 3.35322 29.3633C6.10459 32.0129 6.96439 33.7223 7.73821 37.5684C8.25409 40.218 9.71575 46.9702 10.9195 52.6112C12.983 61.7565 13.5849 63.0385 16.7661 66.7137C24.5903 75.4317 25.1062 77.0556 22.4408 83.2094C20.0334 88.765 19.4315 93.3804 20.8932 95.3462C22.6987 97.8248 31.4687 99.2778 48.5788 99.8761C64.915 100.389 79.6176 99.2778 84.8624 97.141C87.7857 95.9445 88.1296 95.0043 87.6997 89.4487C87.6137 88.0812 86.7539 85.5171 85.8941 83.7222C82.8848 77.8248 83.4867 76.1154 91.6548 66.1154C95.3519 61.671 97.2435 55.5171 100.167 39.1069C101.113 33.7223 101.628 32.6112 104.896 29.3633C108.249 26.03 108.507 25.5172 108.077 22.2693C107.217 15.6881 100.597 11.9274 95.6099 15.1753C91.7408 17.6539 91.1389 19.0215 91.2249 25.4317C91.3969 32.1838 89.9352 35.7736 84.8624 41.8419C82.025 45.1753 81.8531 45.2608 81.3372 43.4659C80.4774 40.218 80.7353 27.9103 81.7671 24.8334C82.3689 23.2095 83.9166 20.389 85.2063 18.5941C88.4735 14.1497 88.4735 10.389 85.2923 6.88472C83.2287 4.6625 82.197 4.14968 79.1017 4.14968C75.9204 4.14968 74.9747 4.57703 72.8252 6.97019C70.4177 9.70523 70.3317 10.0471 70.8476 15.5172C71.4495 22.1838 69.5579 30.8163 65.5168 39.9616C62.5935 46.4573 62.6795 46.4573 60.616 34.8334C58.8964 24.9189 58.9824 22.2693 61.1319 14.2351C62.5935 8.67959 62.6795 7.14113 61.8197 5.08985C59.4982 -0.465703 52.4479 -1.74775 48.0629 2.61122ZM57.4347 7.48301C57.7786 10.7309 55.8871 12.5257 52.8778 11.7565C51.1582 11.3292 50.7283 10.7309 50.7283 8.33771C50.7283 4.83344 51.3301 4.23515 54.5974 4.57703C56.7469 4.83344 57.1768 5.26079 57.4347 7.48301ZM31.2968 9.7907C32.3285 10.5599 32.7584 11.7565 32.5005 13.3804C32.3285 15.5172 31.8126 16.03 29.6631 16.2009C28.0295 16.4574 26.8258 16.03 26.052 15.0044C24.5903 12.9531 24.5903 12.4403 26.6538 10.389C28.7174 8.33771 29.2332 8.33771 31.2968 9.7907ZM81.1652 9.7907C82.197 10.5599 82.6269 11.7565 82.3689 13.3804C82.111 15.6881 81.7671 15.9445 79.1877 15.9445C75.4046 15.9445 73.9429 12.9531 76.5223 10.389C78.4998 8.42318 79.1017 8.33771 81.1652 9.7907ZM11.0055 19.9616C12.7251 21.671 12.2952 25.6026 10.3176 26.2009C7.13635 27.2266 5.15881 25.9445 5.15881 22.7821C5.15881 21.2437 5.67469 19.7052 6.27655 19.5343C8.16811 18.765 9.97369 18.936 11.0055 19.9616ZM102.144 19.9616C104.466 22.2693 102.746 26.6283 99.651 26.6283C97.8454 26.6283 95.4379 24.4061 95.4379 22.7821C95.4379 19.7907 99.9949 17.8249 102.144 19.9616ZM34.392 32.3548C34.392 34.4061 39.5509 44.3206 42.7321 48.4231L45.8274 52.5257L47.375 50.4744C49.1806 48.1667 53.3077 36.1155 53.3077 33.124C53.3077 28.5086 54.5974 30.5599 56.403 37.9958C58.2945 45.859 61.3898 52.6966 62.7655 51.8419C64.3991 50.8163 69.9018 41.7565 72.6532 35.6026L75.6625 28.765V34.3206C75.6625 40.1325 77.64 53.6368 78.5858 54.577C78.8438 54.8334 82.6269 51.5855 86.9259 47.2266C91.2249 42.9531 94.4921 40.1326 94.2342 40.9018C93.9763 41.7565 93.1165 45.3462 92.3426 48.8505C91.0529 54.9189 89.0754 59.9616 88.0436 59.9616C87.8717 59.9616 86.0661 59.1069 84.0886 58.1667C71.1915 51.5855 39.7228 51.5001 25.1922 57.9103C21.667 59.4488 20.1193 59.7052 19.2595 59.0214C18.6577 58.5941 17.368 54.577 16.3362 50.3035C15.3904 45.9445 14.3587 41.8419 14.1007 40.9872C13.8428 40.218 17.196 43.124 21.495 47.3975C25.794 51.5855 29.4912 54.8334 29.7491 54.577C30.6949 53.6368 32.6724 40.1325 32.6724 34.3206C32.6724 30.389 32.9304 29.1069 33.5322 30.0471C33.9621 30.7308 34.392 31.842 34.392 32.3548ZM61.9057 59.1069C67.3224 59.6197 73.341 60.3889 75.2326 60.9018C78.4998 61.7565 81.6811 63.8077 81.6811 65.0898C81.6811 65.3462 69.3 65.6026 54.1675 65.6881C39.035 65.6881 26.6538 65.4317 26.6538 65.0043C26.6538 63.8932 30.351 61.671 33.9621 60.6453C35.8537 60.1325 40.4966 59.4488 44.2798 59.1069C48.0629 58.765 51.3301 58.4231 51.5881 58.4231C51.846 58.3377 56.4889 58.6795 61.9057 59.1069ZM73.2551 71.671C79.0157 72.1838 79.1017 72.1838 78.4139 74.406C78.0699 75.6026 77.812 77.8248 77.898 79.1923V81.8419L73.599 81.2436C71.1915 80.9017 62.4216 80.5599 54.1675 80.5599C45.9134 80.5599 37.1434 80.9017 34.736 81.2436L30.437 81.8419V79.1923C30.5229 77.8248 30.179 75.6026 29.8351 74.3205C29.2332 72.0983 29.3192 72.0129 33.2743 71.671C40.6686 71.1582 67.4084 71.0727 73.2551 71.671ZM76.2644 87.312C79.7036 88.5086 80.4774 90.3889 78.0699 91.671C73.599 94.0641 41.1845 94.4915 32.5005 92.3547C29.1473 91.5 28.0295 89.0214 30.265 87.6539C33.5322 85.6026 70.7616 85.3462 76.2644 87.312Z" fill="#ED6E6E"/>
</svg>
