<svg width="94" height="100" viewBox="0 0 94 100" fill="none" xmlns="http://www.w3.org/2000/svg">
<path d="M43.2885 0.4581C39.3821 1.64974 37.15 4.66857 37.15 8.72016C37.15 10.7062 37.708 13.169 38.5052 14.3606C39.3024 15.5522 39.7807 16.5056 39.6213 16.585C25.0324 23.8143 17.0603 34.0624 18.7344 43.675C19.3722 47.5677 22.1624 53.2876 25.1121 56.7831L27.1848 59.3253L25.9093 64.4096C25.1918 67.1901 24.6338 70.2089 24.6338 71.0828C24.6338 73.3866 26.7065 75.0549 30.852 76.0877L34.5989 77.041L30.6128 78.1532C28.3009 78.7888 23.1988 79.2654 18.3358 79.186C8.84902 79.186 7.09516 79.8215 2.79023 84.747L0 88.0041L3.0294 92.5324C4.70353 94.9951 6.856 97.6962 7.81265 98.4906C9.32735 99.9206 9.56651 99.9206 10.9218 98.7289C11.7987 97.9345 15.7847 97.0606 22.6407 96.1867C34.7583 94.6773 39.7807 93.3268 43.9262 90.6257L46.8759 88.6397L49.7459 90.308C53.9711 92.8501 59.1529 94.2007 70.3139 95.7895C76.5321 96.6634 81.3153 97.7756 82.5909 98.6495L84.7434 100L87.9322 96.4251C89.7658 94.439 91.8385 91.7379 92.556 90.4669C93.9113 88.0836 93.9113 88.0041 91.6791 84.9059C88.2511 80.2187 85.2217 79.1065 76.2929 79.2654C68.3208 79.5037 58.7543 77.756 61.704 76.6438C62.5809 76.326 64.4942 75.611 65.9292 75.1344C69.9153 73.625 70.2341 72.195 68.4006 65.6012L66.7264 59.8019L68.4006 57.7364C71.8286 53.367 74.2202 48.6799 75.0971 44.5489C75.8146 40.8945 75.7349 39.544 74.5391 35.6513C72.3866 28.8192 64.9726 21.9077 54.29 16.585C54.1305 16.5056 54.5291 15.6317 55.1669 14.5989C59.1529 8.2435 55.8047 0.934757 48.4703 0.0608856C46.9556 -0.0980002 44.6437 0.0608855 43.2885 0.4581ZM50.1445 6.81353C51.0214 7.6874 51.7389 8.95849 51.7389 9.59403C51.7389 11.2623 48.8689 13.9634 47.1151 13.9634C44.7234 13.9634 42.8101 11.9773 42.8101 9.59403C42.8101 5.54244 47.1948 3.87414 50.1445 6.81353ZM52.1375 21.0338C57.1599 23.3376 65.0523 29.5342 67.3642 33.0297C71.3502 39.0673 70.3936 47.8855 65.3712 50.8249C60.3487 53.6848 35.2367 54.0026 29.1779 51.2221C24.7135 49.1566 22.561 41.0534 25.1121 35.7307C28.2212 29.137 41.2157 19.5244 46.8759 19.5244C47.992 19.5244 50.3836 20.2394 52.1375 21.0338ZM62.262 60.0402L61.9432 62.8207H46.9556H31.9681L31.6492 60.0402L31.41 57.2597H46.9556H62.5012L62.262 60.0402ZM62.0229 67.9845C64.2551 69.0967 64.1753 70.8445 61.9432 71.4006C58.4354 72.2744 40.0199 72.9894 35.4758 72.4333C30.852 71.7978 29.0981 70.3678 30.9317 68.5406C32.9247 66.5546 58.4354 65.9985 62.0229 67.9845ZM52.2172 78.7093C57.5585 82.5226 61.6243 83.6348 73.2635 84.5881C81.8734 85.3031 83.3881 85.6208 84.5839 87.1303C85.7 88.4013 85.7797 89.1163 85.142 90.3874C84.3447 91.8174 83.7867 91.8968 78.2062 91.4202C62.1026 90.0696 52.7753 87.5275 49.0284 83.4759L47.1151 81.4104L45.0423 83.4759C42.3318 86.1769 37.3891 88.3219 31.41 89.3547C22.8002 90.7846 10.4434 91.9763 9.56651 91.4202C9.08819 91.1818 8.68958 90.0696 8.68958 88.9574C8.68958 86.0975 12.1176 84.9853 22.2421 84.4292C32.6856 83.7937 35.8744 82.9198 41.3752 79.0271C43.7668 77.3588 46.3179 75.9288 47.0354 75.9288C47.6731 75.9288 50.0647 77.1999 52.2172 78.7093Z" fill="#ED6E6E"/>
</svg>
