<svg width="86" height="100" viewBox="0 0 86 100" fill="none" xmlns="http://www.w3.org/2000/svg">
<path d="M4.43402 2.61658C2.0755 5.04626 1.88682 5.8873 1.88682 12.8025V20.3719L9.33975 26.8199L16.887 33.1745V50.4626L16.9814 67.7507L8.49068 76.1611L0 84.5715V91.113C0 95.0378 0.471705 98.2151 1.13209 98.8692C1.98116 99.7103 12.453 99.9906 42.4534 99.9906C88.9635 99.9906 85.8502 100.645 85.8502 91.0195V85.506L76.8879 76.4414L67.9255 67.3769V50.6495V33.8286L75.4727 27.4741L83.02 21.0261V12.9894C83.02 5.5135 82.8313 4.85936 80.3785 2.52313C78.0199 0.280348 77.0765 0 70.6614 0C62.7367 0 59.1518 1.86898 60.0952 5.60695C60.5669 7.19559 60.1895 7.47593 57.6423 7.47593C55.1894 7.47593 54.7177 7.10214 54.7177 5.3266C54.7177 1.12139 52.0762 0 42.2647 0C32.5476 0 30.1891 1.12139 30.1891 5.42005C30.1891 7.00869 29.6231 7.47593 27.8306 7.47593C25.9438 7.47593 25.4721 7.00869 25.4721 5.3266C25.4721 1.30829 22.7362 0 14.5285 0C7.45293 0 6.79255 0.186898 4.43402 2.61658ZM19.8116 9.62527C19.8116 12.9894 21.6041 14.0174 27.4532 14.0174C34.6231 14.0174 35.8496 13.4567 35.8496 10.186V7.47593H42.4534C48.6799 7.47593 49.0573 7.56938 49.0573 9.62527C49.0573 13.0829 50.8498 14.0174 57.7366 14.0174C63.2084 14.0174 64.2462 13.737 65.0952 12.0549C65.7556 11.027 65.9443 9.53182 65.6613 8.78422C65.2839 7.75628 66.3217 7.47593 70.6614 7.47593C76.9822 7.47593 77.3596 7.94318 77.3596 14.765C77.3596 18.9702 77.1709 19.344 71.6991 23.5492L66.133 28.0348H42.7364H19.3399L13.6794 23.5492C8.11332 19.0636 8.01898 18.8767 8.01898 14.3912C8.11332 11.868 8.39634 9.25147 8.86805 8.59733C9.24541 7.94318 11.6039 7.47593 14.7172 7.47593C19.4342 7.47593 19.8116 7.66283 19.8116 9.62527ZM62.265 49.5281V64.4799L42.8308 64.293L23.4909 64.0127L23.3022 49.2477L23.1135 34.5762H42.7364H62.265V49.5281ZM68.5859 74.9462C71.3217 77.6563 73.5859 80.086 73.5859 80.3663C73.5859 80.6466 59.7178 80.7401 42.7364 80.5532L11.887 80.2729L16.9814 75.2266L22.0758 70.0869H42.8308H63.5858L68.5859 74.9462ZM80.1898 90.1785V93.4492H42.9251H5.66046V90.1785V86.9077H42.9251H80.1898V90.1785Z" fill="#ED6E6E"/>
</svg>
