<?xml version="1.0" standalone="no"?>
<!DOCTYPE svg PUBLIC "-//W3C//DTD SVG 20010904//EN"
 "http://www.w3.org/TR/2001/REC-SVG-20010904/DTD/svg10.dtd">
<svg version="1.0" xmlns="http://www.w3.org/2000/svg"
 width="260.000000pt" height="260.000000pt" viewBox="0 0 260.000000 260.000000"
 preserveAspectRatio="xMidYMid meet">
<metadata>
Created by potrace 1.11, written by Peter Selinger 2001-2013
</metadata>
<g transform="translate(0.000000,260.000000) scale(0.100000,-0.100000)"
fill="#000000" stroke="none">
<path d="M1018 2214 l-3 -139 -115 -46 c-82 -34 -119 -54 -127 -70 -7 -13 -43
-91 -79 -174 -36 -82 -102 -221 -145 -307 l-80 -157 55 -85 c63 -98 37 -91
216 -52 l94 21 14 93 14 93 103 48 c95 45 105 52 146 111 44 63 44 63 50 34
18 -82 11 -115 -52 -229 -73 -133 -259 -541 -254 -558 2 -7 6 -58 9 -115 l6
-102 -85 0 -85 0 0 -85 0 -85 -80 0 -80 0 0 -80 0 -80 760 0 760 0 0 85 0 85
-80 0 -80 0 0 80 0 80 -69 0 -69 0 -32 96 c-36 107 -36 105 11 256 l30 98 109
0 109 0 86 264 c47 144 85 269 85 276 0 12 -26 83 -152 419 -20 53 -20 53
-222 186 l-201 132 -105 7 c-58 4 -143 11 -190 16 -47 5 -126 12 -177 15 l-92
7 -3 -138z m0 -407 l32 -33 -35 -34 -35 -34 -30 29 c-16 16 -30 33 -30 39 0
11 50 66 60 66 3 0 20 -15 38 -33z"/>
</g>
</svg>
