<svg width="100" height="100" viewBox="0 0 100 100" fill="none" xmlns="http://www.w3.org/2000/svg">
<path d="M23.6328 2.92969C23.6328 1.28887 22.3439 0 20.7031 0C19.0623 0 17.7734 1.28887 17.7734 2.92969V5.85938H23.6328V2.92969Z" fill="#E9E9E9"/>
<path d="M41.2109 2.92969C41.2109 1.28887 39.9221 0 38.2812 0C36.6404 0 35.3516 1.28887 35.3516 2.92969V5.85938H41.2109V2.92969Z" fill="#E9E9E9"/>
<path d="M58.7891 2.92969C58.7891 1.28887 57.5002 0 55.8594 0C54.2186 0 52.9297 1.28887 52.9297 2.92969V5.85938H58.7891V2.92969Z" fill="#E9E9E9"/>
<path d="M35.3516 67.5781V73.4375C35.3516 78.284 39.2941 82.2266 44.1406 82.2266H47.0703V64.6484H38.2812C36.6676 64.6484 35.3516 65.9617 35.3516 67.5781Z" fill="#E9E9E9"/>
<path d="M26.5625 47.0703C31.4166 47.0703 35.3516 43.1353 35.3516 38.2812C35.3516 33.4272 31.4166 29.4922 26.5625 29.4922C21.7084 29.4922 17.7734 33.4272 17.7734 38.2812C17.7734 43.1353 21.7084 47.0703 26.5625 47.0703Z" fill="#E9E9E9"/>
<path d="M2.92969 100H53.2812C50.1174 96.9529 48.0664 92.6561 47.3633 88.0859H44.1406C36.0547 88.0859 29.4922 81.5234 29.4922 73.4375V67.5781C29.4922 62.7146 33.4178 58.7891 38.2812 58.7891H47.0703V55.8594C47.0703 50.9959 50.9959 47.0703 55.8594 47.0703H76.3672V8.78906C76.3672 7.14824 75.0783 5.85938 73.4375 5.85938H58.7891V11.7188C58.7891 13.3592 57.5002 14.6484 55.8594 14.6484C54.2186 14.6484 52.9297 13.3592 52.9297 11.7188V5.85938H41.2109V11.7188C41.2109 13.3592 39.9221 14.6484 38.2812 14.6484C36.6404 14.6484 35.3516 13.3592 35.3516 11.7188V5.85938H23.6328V11.7188C23.6328 13.3592 22.3439 14.6484 20.7031 14.6484C19.0623 14.6484 17.7734 13.3592 17.7734 11.7188V5.85938H2.92969C1.28887 5.85938 0 7.14824 0 8.78906V97.0703C0 98.7107 1.28887 100 2.92969 100ZM50 23.6328H61.7188C63.3596 23.6328 64.6484 24.9217 64.6484 26.5625C64.6484 28.2029 63.3596 29.4922 61.7188 29.4922H50C48.3592 29.4922 47.0703 28.2029 47.0703 26.5625C47.0703 24.9217 48.3592 23.6328 50 23.6328ZM50 35.3516H61.7188C63.3596 35.3516 64.6484 36.6404 64.6484 38.2812C64.6484 39.9217 63.3596 41.2109 61.7188 41.2109H50C48.3592 41.2109 47.0703 39.9217 47.0703 38.2812C47.0703 36.6404 48.3592 35.3516 50 35.3516ZM26.5625 23.6328C34.6484 23.6328 41.2109 30.1953 41.2109 38.2812C41.2109 46.3672 34.6484 52.9297 26.5625 52.9297C18.4766 52.9297 11.9141 46.3672 11.9141 38.2812C11.9141 30.1953 18.4766 23.6328 26.5625 23.6328Z" fill="#E9E9E9"/>
<path d="M76.3672 85.1562C81.2213 85.1562 85.1562 81.2213 85.1562 76.3672C85.1562 71.5131 81.2213 67.5781 76.3672 67.5781C71.5131 67.5781 67.5781 71.5131 67.5781 76.3672C67.5781 81.2213 71.5131 85.1562 76.3672 85.1562Z" fill="#E9E9E9"/>
<path d="M97.0703 52.9297H55.8594C54.24 52.9297 52.9297 54.24 52.9297 55.8594V85.1562C52.9297 93.233 59.4986 100 67.5781 100H85.1562C93.2357 100 100 93.233 100 85.1562V55.8594C100 54.24 98.6896 52.9297 97.0703 52.9297ZM76.3672 91.0156C68.2877 91.0156 61.7188 84.4439 61.7188 76.3672C61.7188 68.2904 68.2877 61.7188 76.3672 61.7188C84.4467 61.7188 91.0156 68.2904 91.0156 76.3672C91.0156 84.4439 84.4467 91.0156 76.3672 91.0156Z" fill="#E9E9E9"/>
</svg>
