<svg width="100" height="100" viewBox="0 0 100 100" fill="none" xmlns="http://www.w3.org/2000/svg">
<path d="M43.4021 66.3773V66.3727L41.1278 68.6478L41.1308 68.6508L31.5094 78.2822C30.1987 79.5944 28.4561 80.3169 26.6029 80.3169C24.7498 80.3169 23.0072 79.5944 21.6965 78.2822C20.385 76.9707 19.6632 75.2258 19.6632 73.3704C19.6632 71.5157 20.385 69.7716 21.6957 68.4593L33.5892 56.5544L19.6762 42.6277L19.6739 42.6254L17.4019 44.8982L17.4049 44.9013L7.78275 54.5326C2.59399 59.726 0 66.5482 0 73.3711C0 80.1933 2.59399 87.0155 7.78275 92.2089C12.9715 97.403 19.7868 100 26.6022 100C33.4183 100 40.2336 97.403 45.4224 92.2096L57.3151 80.3047L43.4021 66.3773Z" fill="#E9E9E9"/>
<path d="M58.7273 55.1849C58.1779 54.6349 57.4326 54.3259 56.6559 54.3259C55.8784 54.3259 55.1331 54.6349 54.5837 55.1849L47.5945 62.1956L61.499 76.1131L68.4967 69.1116C69.6411 67.9665 69.6411 66.1095 68.4967 64.9635L58.7273 55.1849Z" fill="#E9E9E9"/>
<path d="M24.4324 39.0091L23.8609 38.4384L37.7724 52.3636L44.7708 45.3613C45.3201 44.812 45.6284 44.0658 45.6284 43.2877C45.6284 42.5095 45.3201 41.7641 44.7708 41.214L35.0006 31.4346C33.857 30.2895 32.0015 30.2895 30.8571 31.4346L23.8594 38.4369L23.8609 38.4384L24.4324 39.0091Z" fill="#E9E9E9"/>
<path d="M40.165 27.7458C40.5655 27.9327 40.9866 28.0212 41.4017 28.0212C42.5049 28.0212 43.5616 27.3941 44.059 26.3275L47.1497 19.693C47.8333 18.2251 47.1985 16.4803 45.7321 15.7951C44.2658 15.1108 42.5224 15.7455 41.8388 17.2142L38.7482 23.848C38.0646 25.3166 38.6986 27.0615 40.165 27.7458Z" fill="#E9E9E9"/>
<path d="M84.1827 54.2839C83.4984 52.816 81.7551 52.1805 80.2887 52.8656L73.661 55.9586C72.1947 56.6437 71.5599 58.3885 72.2443 59.8564C72.7409 60.9238 73.7976 61.5501 74.9008 61.5501C75.3159 61.5501 75.737 61.4616 76.1375 61.2747L82.7652 58.1818C84.2316 57.4966 84.8663 55.7518 84.1827 54.2839Z" fill="#E9E9E9"/>
<path d="M96.9139 26.1032C95.6573 27.4094 94.1544 28.476 92.4835 29.2328C92.4889 29.3999 92.4911 29.5677 92.4911 29.7356V42.6598C92.4911 43.0061 92.4652 43.3472 92.4149 43.6798H98.9807C99.5422 43.6798 100 43.222 100 42.6598V33.8226C100 30.8334 98.8243 28.1158 96.9139 26.1032Z" fill="#E9E9E9"/>
<path d="M91.2224 23.2658C91.3658 23.172 91.507 23.0751 91.6443 22.9721C93.7172 21.4287 95.0623 18.9583 95.0623 16.1789C95.0623 11.512 91.2697 7.71561 86.6074 7.71561C86.5532 7.71561 86.4998 7.71866 86.4456 7.71942C86.5791 8.55331 86.6508 9.40704 86.6508 10.2783C86.6508 12.2948 86.2778 14.2258 85.5988 16.0057L86.2305 16.5237C88.4636 18.3548 90.1619 20.6749 91.2224 23.2658Z" fill="#E9E9E9"/>
<path d="M82.515 21.0548C79.5609 24.3431 75.28 26.4153 70.5238 26.4153C65.9775 26.4153 61.8668 24.5201 58.9325 21.4813C56.7047 23.5336 55.3055 26.474 55.3055 29.7356V42.6598C55.3055 43.222 55.7625 43.6798 56.3248 43.6798H85.6133C86.1748 43.6798 86.6325 43.222 86.6325 42.6598V29.7356C86.6318 26.2405 85.0266 23.114 82.515 21.0548Z" fill="#E9E9E9"/>
<path d="M80.7915 10.2783C80.7915 15.9546 76.1902 20.5566 70.5132 20.5566C64.8369 20.5566 60.2348 15.9546 60.2348 10.2783C60.2348 4.60205 64.8369 0 70.5132 0C76.1902 0 80.7915 4.60205 80.7915 10.2783Z" fill="#E9E9E9"/>
</svg>
