<svg width="100" height="100" viewBox="0 0 100 100" fill="none" xmlns="http://www.w3.org/2000/svg">
<path d="M32.2266 52.7344H2.92969C1.31172 52.7344 0 54.0461 0 55.6641V96.6797C0 98.2977 1.31172 99.6094 2.92969 99.6094H32.2266C33.8445 99.6094 35.1562 98.2977 35.1562 96.6797V55.6641C35.1562 54.0461 33.8445 52.7344 32.2266 52.7344Z" fill="#E9E9E9"/>
<path d="M97.0703 52.7344H93.3809C94.5361 56.0271 93.6639 59.7272 91.0332 62.1367L91.7422 62.9863C94.8379 66.6973 94.3457 72.2441 90.6426 75.3496L80.541 83.8281C76.8318 86.9328 71.2756 86.4809 68.1406 82.7246L67.4551 81.9023C62.4656 85.6812 55.1971 83.1598 53.6367 77.0801L47.3906 52.7344H43.9453C42.3281 52.7344 41.0156 54.0469 41.0156 55.6641V96.6797C41.0156 98.2969 42.3281 99.6094 43.9453 99.6094H97.0703C98.6875 99.6094 100 98.2969 100 96.6797V55.6641C100 54.0469 98.6875 52.7344 97.0703 52.7344V52.7344Z" fill="#E9E9E9"/>
<path d="M20.5078 17.5781C18.8924 17.5781 17.5781 18.8924 17.5781 20.5078V23.4375H23.4375V20.5078C23.4375 18.8924 22.1232 17.5781 20.5078 17.5781Z" fill="#E9E9E9"/>
<path d="M41.0156 17.5781V29.2969C44.2465 29.2969 46.875 26.6684 46.875 23.4375C46.875 20.2066 44.2465 17.5781 41.0156 17.5781Z" fill="#E9E9E9"/>
<path d="M97.0703 0H2.92969C1.3125 0 0 1.3125 0 2.92969V43.9453C0 45.5625 1.3125 46.875 2.92969 46.875H45.8867L44.7012 42.2559C42.8408 35.0014 50.3607 28.8879 57.0762 32.1758L87.1328 46.875H97.0703C98.6875 46.875 100 45.5625 100 43.9453V2.92969C100 1.3125 98.6875 0 97.0703 0ZM29.2969 32.2266C29.2969 33.8437 27.9844 35.1562 26.3672 35.1562C24.75 35.1562 23.4375 33.8437 23.4375 32.2266V29.2969H17.5781V32.2266C17.5781 33.8437 16.2656 35.1562 14.6484 35.1562C13.0313 35.1562 11.7188 33.8437 11.7188 32.2266V20.5078C11.7188 15.6621 15.6621 11.7188 20.5078 11.7188C25.3535 11.7188 29.2969 15.6621 29.2969 20.5078V32.2266ZM41.0156 35.1562H38.0859C36.4688 35.1562 35.1562 33.8437 35.1562 32.2266V14.6484C35.1562 13.0313 36.4688 11.7188 38.0859 11.7188H41.0156C47.4766 11.7188 52.7344 16.9766 52.7344 23.4375C52.7344 29.8984 47.4766 35.1562 41.0156 35.1562ZM84.9609 32.2266H61.5234C59.9063 32.2266 58.5938 30.9141 58.5938 29.2969C58.5938 27.6797 59.9063 26.3672 61.5234 26.3672H84.9609C86.5781 26.3672 87.8906 27.6797 87.8906 29.2969C87.8906 30.9141 86.5781 32.2266 84.9609 32.2266ZM84.9609 20.5078H61.5234C59.9063 20.5078 58.5938 19.1953 58.5938 17.5781C58.5938 15.9609 59.9063 14.6484 61.5234 14.6484H84.9609C86.5781 14.6484 87.8906 15.9609 87.8906 17.5781C87.8906 19.1953 86.5781 20.5078 84.9609 20.5078Z" fill="#E9E9E9"/>
<path d="M86.3785 53.0299L54.501 37.4394C52.2605 36.3437 49.756 38.3826 50.3759 40.7994L59.3125 75.6228C59.8476 77.708 62.3806 78.5232 64.0316 77.1404L68.2004 73.648L72.641 78.9713C73.6773 80.2137 75.5297 80.383 76.774 79.3389L86.8767 70.8615C88.1136 69.8236 88.2775 67.9805 87.2431 66.7406L82.7947 61.4078L86.9728 57.9074C88.5963 56.5473 88.2816 53.9603 86.3785 53.0299V53.0299Z" fill="#E9E9E9"/>
</svg>
