<svg width="100" height="92" viewBox="0 0 100 92" fill="none" xmlns="http://www.w3.org/2000/svg">
<path d="M93.1641 0H41.0156V23.4375H100V6.83594C100 3.0666 96.9334 0 93.1641 0Z" fill="#E9E9E9"/>
<path d="M6.83594 0C3.0666 0 0 3.0666 0 6.83594V23.4375H35.1562V0H6.83594ZM23.4375 14.6484H11.7188C10.1008 14.6484 8.78906 13.3367 8.78906 11.7188C8.78906 10.1008 10.1008 8.78906 11.7188 8.78906H23.4375C25.0555 8.78906 26.3672 10.1008 26.3672 11.7188C26.3672 13.3367 25.0555 14.6484 23.4375 14.6484Z" fill="#E9E9E9"/>
<path d="M0 29.2969V84.9609C0 88.7303 3.0666 91.7969 6.83594 91.7969H93.1641C96.9334 91.7969 100 88.7303 100 84.9609V29.2969H0ZM55.1758 80.0781C55.1758 81.6961 53.8641 83.0078 52.2461 83.0078H13.1836C11.5656 83.0078 10.2539 81.6961 10.2539 80.0781V41.0156C10.2539 39.3977 11.5656 38.0859 13.1836 38.0859H52.2461C53.8641 38.0859 55.1758 39.3977 55.1758 41.0156V80.0781ZM86.8164 81.0547H66.8945C65.2766 81.0547 63.9648 79.743 63.9648 78.125C63.9648 76.507 65.2766 75.1953 66.8945 75.1953H86.8164C88.4344 75.1953 89.7461 76.507 89.7461 78.125C89.7461 79.743 88.4344 81.0547 86.8164 81.0547ZM86.8164 69.3359H66.8945C65.2766 69.3359 63.9648 68.0242 63.9648 66.4062C63.9648 64.7883 65.2766 63.4766 66.8945 63.4766H86.8164C88.4344 63.4766 89.7461 64.7883 89.7461 66.4062C89.7461 68.0242 88.4344 69.3359 86.8164 69.3359ZM86.8164 57.6172H66.8945C65.2766 57.6172 63.9648 56.3055 63.9648 54.6875C63.9648 53.0695 65.2766 51.7578 66.8945 51.7578H86.8164C88.4344 51.7578 89.7461 53.0695 89.7461 54.6875C89.7461 56.3055 88.4344 57.6172 86.8164 57.6172ZM86.8164 45.8984H66.8945C65.2766 45.8984 63.9648 44.5867 63.9648 42.9688C63.9648 41.3508 65.2766 40.0391 66.8945 40.0391H86.8164C88.4344 40.0391 89.7461 41.3508 89.7461 42.9688C89.7461 44.5867 88.4344 45.8984 86.8164 45.8984Z" fill="#E9E9E9"/>
<path d="M30.2734 57.3492V63.7445L34.892 60.5469L30.2734 57.3492Z" fill="#E9E9E9"/>
<path d="M16.1133 77.1484H49.3164V43.9453H16.1133V77.1484ZM24.4141 51.7578C24.4141 50.6682 25.0189 49.6686 25.9842 49.1627C26.9494 48.6568 28.1154 48.7287 29.0115 49.349L41.7068 58.1381C42.4971 58.6854 42.9688 59.5855 42.9688 60.5469C42.9688 61.5082 42.4971 62.4084 41.7066 62.9557L29.0113 71.7447C28.5121 72.0904 27.9289 72.2656 27.3434 72.2656C26.8781 72.2656 26.4113 72.1549 25.984 71.9311C25.0189 71.4252 24.4141 70.4256 24.4141 69.3359V51.7578Z" fill="#E9E9E9"/>
</svg>
