<svg width="74" height="100" viewBox="0 0 74 100" fill="none" xmlns="http://www.w3.org/2000/svg">
<path d="M31.3586 0.73989C24.1723 2.89365 20.5324 10.385 22.8657 18.1572C24.079 22.1838 24.079 22.7457 22.7723 23.4948C19.1325 25.5549 14.9327 30.1434 13.9061 33.2335C11.6662 39.9757 14.5594 49.6208 19.7858 52.6173L22.679 54.3965L19.5058 55.9884C14.746 58.5168 7.74633 65.0717 5.13311 69.4728C2.05324 74.7168 0 83.9873 0 92.696V100H36.4917H73.0768L72.5169 90.3549C72.2369 85.111 71.3036 78.6497 70.4636 76.0278C68.2237 69.3792 63.0906 62.9179 56.4642 58.4231L50.7711 54.5838L54.691 50.8382C59.0774 46.6243 60.2907 42.6913 59.2641 35.8555C58.7041 31.6416 54.5043 26.1168 50.1178 23.6821C48.5312 22.8393 48.5312 22.4647 49.9312 18.3445C53.851 7.01388 43.4914 -2.81849 31.3586 0.73989ZM39.2916 6.35839C40.9716 6.35839 43.8648 10.1041 43.8648 12.3515C43.8648 13.5688 43.0248 16.378 42.0915 18.5318C41.0649 20.7792 40.5049 23.1202 40.7849 23.7757C40.9716 24.4312 42.8381 26.0231 44.8914 27.4278C49.7445 30.6116 52.2644 34.8254 52.2644 39.8821C52.2644 44.096 50.6778 46.2497 44.0514 51.5873C41.3449 53.741 42.4648 55.9884 48.3446 60.015C60.384 68.3491 65.2372 75.7468 66.0771 86.8902L66.5438 93.4451H36.3984H6.25306L6.71971 86.8902C7.55967 75.5595 11.7595 69.3792 25.1989 59.4532C30.612 55.4266 30.9853 53.1792 26.5988 49.7145C18.0126 43.0659 18.5725 33.9827 27.9055 27.3341C32.0119 24.3376 32.6653 21.8093 30.332 17.5954C26.8788 11.5087 31.0787 4.39191 37.1451 5.98382C37.8917 6.1711 38.825 6.35839 39.2916 6.35839Z" fill="#ED6E6E"/>
</svg>
