<svg width="100" height="100" viewBox="0 0 100 100" xmlns="http://www.w3.org/2000/svg">
<path d="M63.1857 38.6867C61.2336 37.5572 58.7891 38.9715 58.7891 41.2227V54.1992L50 60.791L41.2109 54.1992V41.2227C41.2109 38.9676 38.7629 37.559 36.8143 38.6867C28.6836 43.39 23.6328 52.1406 23.6328 61.5234C23.6328 70.3303 28.082 78.5797 35.3516 83.4486V97.0703C35.3516 98.6883 36.6633 100 38.2813 100H61.7188C63.3367 100 64.6484 98.6883 64.6484 97.0703V83.4486C71.918 78.5797 76.3672 70.3303 76.3672 61.5234C76.3672 52.1406 71.3164 43.39 63.1857 38.6867V38.6867Z" />
<path d="M91.2109 0H8.78906C3.94277 0 0 3.94277 0 8.78906V23.4375H100V8.78906C100 3.94277 96.0572 0 91.2109 0ZM14.8438 17.5781C13.2258 17.5781 11.9141 16.2664 11.9141 14.6484C11.9141 13.0305 13.2258 11.7188 14.8438 11.7188C16.4617 11.7188 17.7734 13.0305 17.7734 14.6484C17.7734 16.2664 16.4617 17.5781 14.8438 17.5781ZM26.5625 17.5781C24.9445 17.5781 23.6328 16.2664 23.6328 14.6484C23.6328 13.0305 24.9445 11.7188 26.5625 11.7188C28.1805 11.7188 29.4922 13.0305 29.4922 14.6484C29.4922 16.2664 28.1805 17.5781 26.5625 17.5781ZM38.2813 17.5781C36.6633 17.5781 35.3516 16.2664 35.3516 14.6484C35.3516 13.0305 36.6633 11.7188 38.2813 11.7188C39.8992 11.7188 41.2109 13.0305 41.2109 14.6484C41.2109 16.2664 39.8992 17.5781 38.2813 17.5781ZM85.1563 17.5781H67.5781C65.9602 17.5781 64.6484 16.2664 64.6484 14.6484C64.6484 13.0305 65.9602 11.7188 67.5781 11.7188H85.1563C86.7742 11.7188 88.0859 13.0305 88.0859 14.6484C88.0859 16.2664 86.7742 17.5781 85.1563 17.5781Z"/>
<path d="M0 84.9609C0 89.8072 3.94277 93.75 8.78906 93.75H29.4922V86.3824C22.1012 80.2858 17.7734 71.2106 17.7734 61.5234C17.7734 50.0559 23.9453 39.3619 33.8803 33.6148C36.5934 32.0445 39.9479 32.0381 42.6719 33.609C45.3854 35.1738 47.0703 38.0912 47.0703 41.2227V51.2695L50 53.4668L52.9297 51.2695V41.2227C52.9297 38.0912 54.6147 35.1738 57.3273 33.6094C60.048 32.0402 63.4018 32.0424 66.1203 33.6152C76.0547 39.3619 82.2266 50.0559 82.2266 61.5234C82.2266 71.2106 77.8988 80.2858 70.5078 86.3824V93.75H91.2109C96.0572 93.75 100 89.8072 100 84.9609V29.2969H0V84.9609Z" />
</svg>
