<svg width="25" height="26" viewBox="0 0 25 26" fill="none" xmlns="http://www.w3.org/2000/svg">
<g clip-path="url(#clip0)">
<path d="M24.9756 7.64407C24.917 6.26259 24.7022 5.31284 24.3945 4.48986C24.077 3.61629 23.5886 2.83419 22.9488 2.18402C22.3236 1.52374 21.5666 1.01067 20.7364 0.685681C19.9405 0.365657 19.0321 0.142255 17.7037 0.0813452C16.3654 0.015277 15.9406 0 12.5464 0C9.15216 0 8.72731 0.015277 7.39401 0.0761868C6.06566 0.137096 5.15244 0.360697 4.36131 0.680522C3.52115 1.01067 2.76912 1.51858 2.14396 2.18402C1.50907 2.83419 1.01593 3.62145 0.703253 4.4849C0.395538 5.31284 0.180729 6.25743 0.122162 7.63891C0.0586347 9.03071 0.0439453 9.47255 0.0439453 13.0025C0.0439453 16.5325 0.0586347 16.9744 0.117202 18.361C0.175769 19.7425 0.390769 20.6922 0.698484 21.5152C1.01593 22.3888 1.50907 23.1709 2.14396 23.8211C2.76912 24.4813 3.52611 24.9944 4.35635 25.3194C5.15244 25.6394 6.0607 25.8628 7.38924 25.9237C8.72235 25.9848 9.14739 25.9999 12.5416 25.9999C15.9358 25.9999 16.3607 25.9848 17.694 25.9237C19.0223 25.8628 19.9355 25.6394 20.7267 25.3194C22.4068 24.6438 23.7352 23.2624 24.3847 21.5152C24.6923 20.6873 24.9073 19.7425 24.9658 18.361C25.0244 16.9744 25.0391 16.5325 25.0391 13.0025C25.0391 9.47255 25.0341 9.03071 24.9756 7.64407ZM22.7243 18.2594C22.6705 19.5292 22.4654 20.2149 22.2944 20.672C21.8744 21.8047 21.01 22.7037 19.9209 23.1405C19.4813 23.3183 18.8172 23.5316 17.6011 23.5873C16.2825 23.6485 15.887 23.6635 12.5513 23.6635C9.21569 23.6635 8.81526 23.6485 7.50141 23.5873C6.28047 23.5316 5.62116 23.3183 5.18163 23.1405C4.63964 22.9322 4.14631 22.6021 3.74588 22.1703C3.33076 21.7487 3.01331 21.2408 2.813 20.6772C2.64207 20.22 2.43699 19.5292 2.38338 18.2646C2.32462 16.8932 2.31013 16.4817 2.31013 13.0127C2.31013 9.54358 2.32462 9.12713 2.38338 7.76093C2.43699 6.49115 2.64207 5.80547 2.813 5.34835C3.01331 4.78449 3.33076 4.27162 3.75084 3.85497C4.15604 3.42325 4.64441 3.0931 5.18659 2.88498C5.62612 2.70721 6.29039 2.49393 7.50637 2.43798C8.82499 2.37707 9.22065 2.36179 12.5561 2.36179C15.8967 2.36179 16.2922 2.37707 17.606 2.43798C18.827 2.49393 19.4863 2.70721 19.9258 2.88498C20.4678 3.0931 20.9611 3.42325 21.3616 3.85497C21.7767 4.27658 22.0941 4.78449 22.2944 5.34835C22.4654 5.80547 22.6705 6.49611 22.7243 7.76093C22.7828 9.13229 22.7975 9.54358 22.7975 13.0127C22.7975 16.4817 22.7828 16.8881 22.7243 18.2594Z" fill="#E9E9E9"/>
<path d="M12.5464 6.32349C9.00086 6.32349 6.12421 9.31501 6.12421 13.0025C6.12421 16.6901 9.00086 19.6816 12.5464 19.6816C16.0921 19.6816 18.9685 16.6901 18.9685 13.0025C18.9685 9.31501 16.0921 6.32349 12.5464 6.32349ZM12.5464 17.3351C10.2462 17.3351 8.38047 15.3949 8.38047 13.0025C8.38047 10.6102 10.2462 8.67 12.5464 8.67C14.8467 8.67 16.7123 10.6102 16.7123 13.0025C16.7123 15.3949 14.8467 17.3351 12.5464 17.3351Z" fill="#E9E9E9"/>
<path d="M20.7219 6.0595C20.7219 6.92057 20.0506 7.61875 19.2224 7.61875C18.3945 7.61875 17.7231 6.92057 17.7231 6.0595C17.7231 5.19823 18.3945 4.50024 19.2224 4.50024C20.0506 4.50024 20.7219 5.19823 20.7219 6.0595Z" fill="#E9E9E9"/>
</g>
<defs>
<clipPath id="clip0">
<rect width="25" height="26" fill="white"/>
</clipPath>
</defs>
</svg>
