<svg width="26" height="20" viewBox="0 0 26 20" fill="none" xmlns="http://www.w3.org/2000/svg">
<path d="M23.3394 0H2.24898C1.01044 0 0 1.00934 0 2.24898V17.2422C0 18.4776 1.00595 19.4912 2.24898 19.4912H23.3394C24.5749 19.4912 25.5884 18.4852 25.5884 17.2422V2.24898C25.5884 1.01354 24.5825 0 23.3394 0ZM23.0289 1.49932L12.8419 11.6864L2.56679 1.49932H23.0289ZM1.49932 16.9317V2.5523L8.72001 9.71106L1.49932 16.9317ZM2.55949 17.9919L9.78473 10.7666L12.3164 13.2766C12.6095 13.5672 13.0824 13.5662 13.3743 13.2743L15.8428 10.8058L23.0289 17.9919H2.55949ZM24.0891 16.9317L16.903 9.74559L24.0891 2.55944V16.9317Z" fill="#E9E9E9"/>
</svg>
