<svg width="26" height="26" viewBox="0 0 26 26" fill="none" xmlns="http://www.w3.org/2000/svg">
<path d="M18.3904 25.5886C17.5644 25.5886 16.7454 25.4425 15.9445 25.1516C12.4164 23.8699 9.14146 21.7824 6.47377 19.1148C3.80607 16.4471 1.71859 13.1722 0.436965 9.64399C0.0251159 8.51014 -0.0964248 7.33972 0.0758411 6.16509C0.237212 5.06483 0.663404 3.9967 1.30839 3.07615C1.95622 2.15155 2.8199 1.38252 3.80602 0.852234C4.85761 0.28676 6.0054 0 7.2176 0C7.59462 0 7.92046 0.263421 7.99947 0.632041L9.25456 6.48913C9.31138 6.75435 9.22987 7.03032 9.03811 7.22212L6.89351 9.36668C8.91662 13.389 12.1994 16.6718 16.2218 18.6949L18.3663 16.5503C18.5581 16.3586 18.8341 16.2772 19.0993 16.3339L24.9564 17.589C25.3251 17.668 25.5884 17.9938 25.5884 18.3708C25.5884 19.583 25.3017 20.7309 24.7361 21.7825C24.2059 22.7686 23.4368 23.6323 22.5122 24.2801C21.5917 24.9251 20.5236 25.3513 19.4233 25.5126C19.0785 25.5633 18.7338 25.5885 18.3904 25.5886ZM6.57872 1.6342C4.97975 1.81072 3.56054 2.64881 2.6181 3.9939C1.55832 5.50641 1.31119 7.36675 1.94008 9.09801C4.40408 15.881 9.70754 21.1845 16.4905 23.6485C18.2217 24.2773 20.0821 24.0303 21.5946 22.9704C22.9397 22.028 23.7778 20.6088 23.9543 19.0098L19.1896 17.9888L16.9499 20.2285C16.7116 20.4669 16.3494 20.5302 16.0445 20.3868C11.2873 18.1519 7.4366 14.3012 5.20169 9.54404C5.05841 9.23904 5.12168 8.87691 5.36001 8.63863L7.59972 6.39892L6.57872 1.6342Z" fill="#E9E9E9"/>
</svg>
