<svg width="40" height="40" viewBox="0 0 40 40" fill="none" xmlns="http://www.w3.org/2000/svg">
<path d="M4.51167 40H19.185C19.875 40 20.435 39.44 20.435 38.75C20.435 38.4833 20.4183 27.35 20.4167 27.0833C20.4167 26.3933 19.8567 25.8333 19.1667 25.8333H15.4167V21.6667H19.1667C19.8567 21.6667 20.4167 21.1067 20.4167 20.4167V15.7217C20.4167 11.6483 23.7317 8.33333 27.805 8.33333H31.25V12.5H29.1667C27.5583 12.5 26.25 13.8083 26.25 15.4167V20.4167C26.25 21.1067 26.81 21.6667 27.5 21.6667H32.5667L31.525 25.8333H27.5C26.81 25.8333 26.25 26.3933 26.25 27.0833V38.75C26.25 39.44 26.81 40 27.5 40H35.4883C37.9767 40 40 37.9767 40 35.4883V4.51167C40 2.02333 37.9767 0 35.4883 0H4.51167C2.02333 0 0 2.02333 0 4.51167V35.49C0 37.9767 2.02333 40 4.51167 40ZM2.5 4.51167C2.5 3.40167 3.40167 2.5 4.51167 2.5H35.49C36.6 2.5 37.5017 3.40167 37.5017 4.51167V35.49C37.5017 36.6 36.6 37.5017 35.49 37.5017H28.75V28.3333H32.5C33.0733 28.3333 33.5733 27.9433 33.7133 27.3867L35.38 20.72C35.5767 19.9317 34.9817 19.1667 34.1667 19.1667H28.75V15.4167C28.75 15.19 28.94 15 29.1667 15H32.5C33.19 15 33.75 14.44 33.75 13.75V7.08333C33.75 6.39333 33.19 5.83333 32.5 5.83333H27.805C22.3533 5.83333 17.9167 10.27 17.9167 15.7217V19.1667H14.1667C13.4767 19.1667 12.9167 19.7267 12.9167 20.4167V27.0833C12.9167 27.7733 13.4767 28.3333 14.1667 28.3333H17.9167V37.5H4.51167C3.40167 37.5 2.5 36.5983 2.5 35.4883V4.51167Z" fill="#EDBA6E"/>
</svg>
