<svg width="367" height="97" viewBox="0 0 367 97" fill="none" xmlns="http://www.w3.org/2000/svg">
<path d="M148.369 52.7543C143.284 52.7543 138.692 51.6187 134.594 49.3475C130.546 47.0764 127.336 43.9412 124.966 39.9419C122.646 35.9427 121.486 31.4497 121.486 26.463C121.486 21.4763 122.646 16.9833 124.966 12.984C127.336 8.98478 130.546 5.84957 134.594 3.57839C138.692 1.30722 143.284 0.171631 148.369 0.171631C152.122 0.171631 155.578 0.788799 158.738 2.02314C161.898 3.2081 164.589 4.98554 166.81 7.35546L164.44 9.79944C160.293 5.70145 154.985 3.65245 148.518 3.65245C144.173 3.65245 140.223 4.63992 136.668 6.61486C133.113 8.5898 130.323 11.33 128.299 14.8355C126.275 18.2917 125.263 22.1675 125.263 26.463C125.263 30.7585 126.275 34.659 128.299 38.1645C130.323 41.6206 133.113 44.3361 136.668 46.3111C140.223 48.286 144.173 49.2735 148.518 49.2735C154.936 49.2735 160.244 47.1998 164.44 43.0524L166.81 45.4964C164.589 47.8663 161.873 49.6685 158.664 50.9028C155.504 52.1371 152.072 52.7543 148.369 52.7543Z" fill="#E9E9E9"/>
<path d="M221.676 0.541931V52.384H217.899V27.722H183.238V52.384H179.461V0.541931H183.238V24.3893H217.899V0.541931H221.676Z" fill="#E9E9E9"/>
<path d="M275.551 48.9772V52.384H239.78V0.541931H274.44V3.94869H243.557V24.3893H271.181V27.722H243.557V48.9772H275.551Z" fill="#E9E9E9"/>
<path d="M302.949 52.7543C299.147 52.7543 295.518 52.1124 292.062 50.8287C288.655 49.4957 285.989 47.7923 284.064 45.7186L285.767 42.9043C287.594 44.8299 290.038 46.4098 293.099 47.6442C296.21 48.8291 299.468 49.4216 302.875 49.4216C307.812 49.4216 311.54 48.4835 314.058 46.6073C316.576 44.7311 317.835 42.2871 317.835 39.2754C317.835 36.9548 317.169 35.1033 315.835 33.7209C314.502 32.3384 312.848 31.2769 310.873 30.5363C308.898 29.7957 306.232 29.0304 302.875 28.2404C299.073 27.3023 296.012 26.3889 293.691 25.5002C291.42 24.6115 289.47 23.2537 287.841 21.4269C286.261 19.5507 285.471 17.0573 285.471 13.9468C285.471 11.4288 286.137 9.1329 287.47 7.05922C288.804 4.93616 290.828 3.25747 293.543 2.02314C296.308 0.788799 299.74 0.171631 303.838 0.171631C306.701 0.171631 309.516 0.591305 312.281 1.43065C315.045 2.27 317.44 3.40559 319.464 4.83742L318.057 7.87388C315.984 6.44205 313.688 5.35584 311.17 4.61524C308.701 3.87464 306.257 3.50434 303.838 3.50434C299.049 3.50434 295.42 4.46712 292.951 6.39268C290.482 8.31824 289.248 10.8116 289.248 13.8727C289.248 16.1933 289.914 18.0448 291.248 19.4273C292.581 20.8097 294.235 21.8712 296.21 22.6118C298.184 23.3524 300.875 24.1424 304.282 24.9818C308.084 25.9199 311.12 26.8333 313.391 27.722C315.663 28.6107 317.588 29.9685 319.168 31.7953C320.797 33.5727 321.612 35.992 321.612 39.0532C321.612 41.5712 320.921 43.8671 319.538 45.9408C318.205 48.0145 316.132 49.6685 313.317 50.9028C310.503 52.1371 307.047 52.7543 302.949 52.7543Z" fill="#E9E9E9"/>
<path d="M348.079 52.7543C344.278 52.7543 340.649 52.1124 337.193 50.8287C333.786 49.4957 331.12 47.7923 329.194 45.7186L330.897 42.9043C332.724 44.8299 335.168 46.4098 338.229 47.6442C341.34 48.8291 344.599 49.4216 348.005 49.4216C352.943 49.4216 356.67 48.4835 359.188 46.6073C361.706 44.7311 362.965 42.2871 362.965 39.2754C362.965 36.9548 362.299 35.1033 360.966 33.7209C359.633 32.3384 357.979 31.2769 356.004 30.5363C354.029 29.7957 351.363 29.0304 348.005 28.2404C344.204 27.3023 341.142 26.3889 338.822 25.5002C336.551 24.6115 334.6 23.2537 332.971 21.4269C331.391 19.5507 330.601 17.0573 330.601 13.9468C330.601 11.4288 331.268 9.1329 332.601 7.05922C333.934 4.93616 335.958 3.25747 338.674 2.02314C341.439 0.788799 344.87 0.171631 348.968 0.171631C351.832 0.171631 354.646 0.591305 357.411 1.43065C360.176 2.27 362.57 3.40559 364.595 4.83742L363.188 7.87388C361.114 6.44205 358.818 5.35584 356.3 4.61524C353.831 3.87464 351.387 3.50434 348.968 3.50434C344.179 3.50434 340.55 4.46712 338.081 6.39268C335.613 8.31824 334.378 10.8116 334.378 13.8727C334.378 16.1933 335.045 18.0448 336.378 19.4273C337.711 20.8097 339.365 21.8712 341.34 22.6118C343.315 23.3524 346.006 24.1424 349.412 24.9818C353.214 25.9199 356.251 26.8333 358.522 27.722C360.793 28.6107 362.719 29.9685 364.299 31.7953C365.928 33.5727 366.743 35.992 366.743 39.0532C366.743 41.5712 366.051 43.8671 364.669 45.9408C363.336 48.0145 361.262 49.6685 358.448 50.9028C355.633 52.1371 352.177 52.7543 348.079 52.7543Z" fill="#E9E9E9"/>
<path d="M120.707 70.0862H128.944C131.083 70.0862 132.971 70.5197 134.609 71.3867C136.246 72.2345 137.518 73.4291 138.424 74.9705C139.329 76.4927 139.782 78.2364 139.782 80.2017C139.782 82.167 139.329 83.9204 138.424 85.4618C137.518 86.9839 136.246 88.1785 134.609 89.0456C132.971 89.8933 131.083 90.3172 128.944 90.3172H120.707V70.0862ZM128.828 88.4675C130.601 88.4675 132.152 88.1207 133.481 87.4271C134.811 86.7142 135.842 85.7411 136.574 84.508C137.306 83.2556 137.672 81.8202 137.672 80.2017C137.672 78.5832 137.306 77.1574 136.574 75.9243C135.842 74.6719 134.811 73.6989 133.481 73.0052C132.152 72.2923 130.601 71.9359 128.828 71.9359H122.846V88.4675H128.828Z" fill="#E9E9E9"/>
<path d="M144.151 75.115H146.203V90.3172H144.151V75.115ZM145.192 71.7914C144.768 71.7914 144.411 71.6469 144.122 71.3578C143.833 71.0688 143.689 70.722 143.689 70.3174C143.689 69.932 143.833 69.5948 144.122 69.3058C144.411 69.0168 144.768 68.8723 145.192 68.8723C145.615 68.8723 145.972 69.0168 146.261 69.3058C146.55 69.5756 146.694 69.9031 146.694 70.2885C146.694 70.7124 146.55 71.0688 146.261 71.3578C145.972 71.6469 145.615 71.7914 145.192 71.7914Z" fill="#E9E9E9"/>
<path d="M165.988 75.115V88.4675C165.988 91.0494 165.352 92.9569 164.08 94.19C162.828 95.4424 160.93 96.0686 158.387 96.0686C156.98 96.0686 155.641 95.8567 154.369 95.4328C153.117 95.0282 152.096 94.4598 151.306 93.7276L152.346 92.1669C153.078 92.822 153.965 93.3326 155.005 93.6987C156.065 94.0648 157.173 94.2478 158.329 94.2478C160.256 94.2478 161.672 93.795 162.577 92.8895C163.483 92.0031 163.936 90.6159 163.936 88.7276V86.7912C163.3 87.7546 162.462 88.4868 161.421 88.9878C160.4 89.4887 159.263 89.7392 158.011 89.7392C156.585 89.7392 155.285 89.4309 154.109 88.8143C152.953 88.1785 152.038 87.3018 151.364 86.1843C150.709 85.0475 150.381 83.7662 150.381 82.3404C150.381 80.9146 150.709 79.6429 151.364 78.5254C152.038 77.4079 152.953 76.5408 154.109 75.9243C155.265 75.3077 156.566 74.9994 158.011 74.9994C159.302 74.9994 160.468 75.2595 161.508 75.7798C162.549 76.3 163.387 77.0514 164.022 78.0341V75.115H165.988ZM158.213 87.9184C159.312 87.9184 160.304 87.6872 161.19 87.2248C162.076 86.7431 162.76 86.0783 163.242 85.2306C163.743 84.3828 163.994 83.4194 163.994 82.3404C163.994 81.2614 163.743 80.3077 163.242 79.4792C162.76 78.6314 162.076 77.9763 161.19 77.5139C160.323 77.0322 159.331 76.7913 158.213 76.7913C157.115 76.7913 156.123 77.0225 155.236 77.485C154.369 77.9474 153.685 78.6025 153.184 79.4503C152.703 80.298 152.462 81.2614 152.462 82.3404C152.462 83.4194 152.703 84.3828 153.184 85.2306C153.685 86.0783 154.369 86.7431 155.236 87.2248C156.123 87.6872 157.115 87.9184 158.213 87.9184Z" fill="#E9E9E9"/>
<path d="M171.726 75.115H173.778V90.3172H171.726V75.115ZM172.767 71.7914C172.343 71.7914 171.986 71.6469 171.697 71.3578C171.408 71.0688 171.264 70.722 171.264 70.3174C171.264 69.932 171.408 69.5948 171.697 69.3058C171.986 69.0168 172.343 68.8723 172.767 68.8723C173.19 68.8723 173.547 69.0168 173.836 69.3058C174.125 69.5756 174.269 69.9031 174.269 70.2885C174.269 70.7124 174.125 71.0688 173.836 71.3578C173.547 71.6469 173.19 71.7914 172.767 71.7914Z" fill="#E9E9E9"/>
<path d="M187.493 89.3924C187.108 89.7392 186.626 90.0089 186.048 90.2016C185.49 90.375 184.902 90.4617 184.285 90.4617C182.86 90.4617 181.761 90.0764 180.991 89.3057C180.22 88.535 179.835 87.4463 179.835 86.0398V76.8491H177.118V75.115H179.835V71.7914H181.887V75.115H186.511V76.8491H181.887V85.9242C181.887 86.8298 182.108 87.5234 182.551 88.0051C183.014 88.4675 183.669 88.6987 184.517 88.6987C184.94 88.6987 185.345 88.6313 185.73 88.4964C186.135 88.3616 186.482 88.1689 186.771 87.9184L187.493 89.3924Z" fill="#E9E9E9"/>
<path d="M196.547 74.9994C198.531 74.9994 200.054 75.5004 201.113 76.5023C202.173 77.485 202.703 78.9493 202.703 80.8953V90.3172H200.738V87.9473C200.275 88.7373 199.591 89.3538 198.686 89.797C197.799 90.2402 196.74 90.4617 195.506 90.4617C193.811 90.4617 192.462 90.0571 191.46 89.2479C190.458 88.4386 189.957 87.3693 189.957 86.0398C189.957 84.7489 190.42 83.7084 191.345 82.9184C192.289 82.1285 193.782 81.7335 195.824 81.7335H200.651V80.8086C200.651 79.4984 200.285 78.5061 199.553 77.8318C198.82 77.1381 197.751 76.7913 196.345 76.7913C195.381 76.7913 194.456 76.9551 193.57 77.2826C192.684 77.5909 191.923 78.0244 191.287 78.5832L190.362 77.0514C191.133 76.3963 192.057 75.8954 193.136 75.5486C194.215 75.1825 195.352 74.9994 196.547 74.9994ZM195.824 88.8432C196.98 88.8432 197.973 88.5831 198.801 88.0629C199.63 87.5234 200.246 86.7527 200.651 85.7508V83.2653H195.882C193.281 83.2653 191.98 84.1708 191.98 85.982C191.98 86.8683 192.318 87.5716 192.992 88.0918C193.666 88.5928 194.61 88.8432 195.824 88.8432Z" fill="#E9E9E9"/>
<path d="M208.276 68.8723H210.328V90.3172H208.276V68.8723Z" fill="#E9E9E9"/>
<path d="M245.047 70.0862V90.3172H242.995V74.1324L235.047 87.745H234.035L226.088 74.2191V90.3172H224.036V70.0862H225.799L234.585 85.0861L243.284 70.0862H245.047Z" fill="#E9E9E9"/>
<path d="M256.523 74.9994C258.508 74.9994 260.03 75.5004 261.09 76.5023C262.149 77.485 262.679 78.9493 262.679 80.8953V90.3172H260.714V87.9473C260.251 88.7373 259.567 89.3538 258.662 89.797C257.775 90.2402 256.716 90.4617 255.483 90.4617C253.787 90.4617 252.438 90.0571 251.436 89.2479C250.435 88.4386 249.934 87.3693 249.934 86.0398C249.934 84.7489 250.396 83.7084 251.321 82.9184C252.265 82.1285 253.758 81.7335 255.801 81.7335H260.627V80.8086C260.627 79.4984 260.261 78.5061 259.529 77.8318C258.797 77.1381 257.727 76.7913 256.321 76.7913C255.357 76.7913 254.433 76.9551 253.546 77.2826C252.66 77.5909 251.899 78.0244 251.263 78.5832L250.338 77.0514C251.109 76.3963 252.034 75.8954 253.113 75.5486C254.192 75.1825 255.328 74.9994 256.523 74.9994ZM255.801 88.8432C256.957 88.8432 257.949 88.5831 258.777 88.0629C259.606 87.5234 260.222 86.7527 260.627 85.7508V83.2653H255.858C253.257 83.2653 251.957 84.1708 251.957 85.982C251.957 86.8683 252.294 87.5716 252.968 88.0918C253.643 88.5928 254.587 88.8432 255.801 88.8432Z" fill="#E9E9E9"/>
<path d="M270.218 78.0919C270.7 77.0707 271.412 76.3 272.357 75.7798C273.32 75.2595 274.505 74.9994 275.911 74.9994V76.9936L275.42 76.9647C273.821 76.9647 272.569 77.4561 271.663 78.4387C270.757 79.4214 270.305 80.799 270.305 82.5716V90.3172H268.253V75.115H270.218V78.0919Z" fill="#E9E9E9"/>
<path d="M285.263 82.6872L281.679 85.982V90.3172H279.627V68.8723H281.679V83.4098L290.754 75.115H293.297L286.794 81.3288L293.904 90.3172H291.39L285.263 82.6872Z" fill="#E9E9E9"/>
<path d="M309.601 83.352H296.884C297 84.9319 297.607 86.2132 298.705 87.1959C299.803 88.1592 301.19 88.6409 302.867 88.6409C303.811 88.6409 304.678 88.4772 305.468 88.1496C306.258 87.8028 306.942 87.3018 307.52 86.6467L308.676 87.9762C308.001 88.7854 307.154 89.402 306.133 89.8259C305.131 90.2498 304.023 90.4617 302.809 90.4617C301.248 90.4617 299.861 90.1342 298.647 89.4791C297.452 88.8047 296.518 87.8799 295.844 86.7045C295.169 85.5292 294.832 84.1997 294.832 82.7161C294.832 81.2325 295.15 79.903 295.786 78.7277C296.441 77.5524 297.327 76.6372 298.445 75.9821C299.582 75.327 300.853 74.9994 302.26 74.9994C303.666 74.9994 304.928 75.327 306.046 75.9821C307.163 76.6372 308.04 77.5524 308.676 78.7277C309.312 79.8838 309.63 81.2132 309.63 82.7161L309.601 83.352ZM302.26 76.7624C300.795 76.7624 299.562 77.2345 298.56 78.1786C297.578 79.1034 297.019 80.3173 296.884 81.8202H307.664C307.529 80.3173 306.961 79.1034 305.959 78.1786C304.976 77.2345 303.743 76.7624 302.26 76.7624Z" fill="#E9E9E9"/>
<path d="M321.812 89.3924C321.427 89.7392 320.945 90.0089 320.367 90.2016C319.808 90.375 319.221 90.4617 318.604 90.4617C317.178 90.4617 316.08 90.0764 315.309 89.3057C314.538 88.535 314.153 87.4463 314.153 86.0398V76.8491H311.436V75.115H314.153V71.7914H316.205V75.115H320.829V76.8491H316.205V85.9242C316.205 86.8298 316.427 87.5234 316.87 88.0051C317.332 88.4675 317.987 88.6987 318.835 88.6987C319.259 88.6987 319.664 88.6313 320.049 88.4964C320.454 88.3616 320.8 88.1689 321.089 87.9184L321.812 89.3924Z" fill="#E9E9E9"/>
<path d="M325.548 75.115H327.6V90.3172H325.548V75.115ZM326.588 71.7914C326.164 71.7914 325.808 71.6469 325.519 71.3578C325.23 71.0688 325.085 70.722 325.085 70.3174C325.085 69.932 325.23 69.5948 325.519 69.3058C325.808 69.0168 326.164 68.8723 326.588 68.8723C327.012 68.8723 327.368 69.0168 327.657 69.3058C327.946 69.5756 328.091 69.9031 328.091 70.2885C328.091 70.7124 327.946 71.0688 327.657 71.3578C327.368 71.6469 327.012 71.7914 326.588 71.7914Z" fill="#E9E9E9"/>
<path d="M341.055 74.9994C342.962 74.9994 344.475 75.5582 345.592 76.6757C346.729 77.774 347.298 79.3828 347.298 81.5023V90.3172H345.246V81.7046C345.246 80.1246 344.851 78.9204 344.061 78.0919C343.271 77.2634 342.143 76.8491 340.679 76.8491C339.041 76.8491 337.741 77.3404 336.777 78.3231C335.833 79.2865 335.361 80.6256 335.361 82.3404V90.3172H333.309V75.115H335.274V77.9185C335.833 76.9936 336.604 76.2807 337.587 75.7798C338.589 75.2595 339.745 74.9994 341.055 74.9994Z" fill="#E9E9E9"/>
<path d="M367 75.115V88.4675C367 91.0494 366.364 92.9569 365.092 94.19C363.84 95.4424 361.942 96.0686 359.399 96.0686C357.992 96.0686 356.653 95.8567 355.382 95.4328C354.129 95.0282 353.108 94.4598 352.318 93.7276L353.358 92.1669C354.091 92.822 354.977 93.3326 356.017 93.6987C357.077 94.0648 358.185 94.2478 359.341 94.2478C361.268 94.2478 362.684 93.795 363.59 92.8895C364.495 92.0031 364.948 90.6159 364.948 88.7276V86.7912C364.312 87.7546 363.474 88.4868 362.434 88.9878C361.412 89.4887 360.276 89.7392 359.023 89.7392C357.597 89.7392 356.297 89.4309 355.121 88.8143C353.965 88.1785 353.05 87.3018 352.376 86.1843C351.721 85.0475 351.393 83.7662 351.393 82.3404C351.393 80.9146 351.721 79.6429 352.376 78.5254C353.05 77.4079 353.965 76.5408 355.121 75.9243C356.278 75.3077 357.578 74.9994 359.023 74.9994C360.314 74.9994 361.48 75.2595 362.52 75.7798C363.561 76.3 364.399 77.0514 365.035 78.0341V75.115H367ZM359.225 87.9184C360.324 87.9184 361.316 87.6872 362.202 87.2248C363.089 86.7431 363.773 86.0783 364.254 85.2306C364.755 84.3828 365.006 83.4194 365.006 82.3404C365.006 81.2614 364.755 80.3077 364.254 79.4792C363.773 78.6314 363.089 77.9763 362.202 77.5139C361.335 77.0322 360.343 76.7913 359.225 76.7913C358.127 76.7913 357.135 77.0225 356.249 77.485C355.382 77.9474 354.698 78.6025 354.197 79.4503C353.715 80.298 353.474 81.2614 353.474 82.3404C353.474 83.4194 353.715 84.3828 354.197 85.2306C354.698 86.0783 355.382 86.7431 356.249 87.2248C357.135 87.6872 358.127 87.9184 359.225 87.9184Z" fill="#E9E9E9"/>
<g clip-path="url(#clip0)">
<path d="M45.1586 0H0V45.1586H45.1586V0Z" fill="#ED6E6E"/>
<path d="M90.3172 0H45.1586V45.1586H90.3172V0Z" fill="#EDBA6E"/>
<path d="M45.1586 45.1587H0V90.3173H45.1586V45.1587Z" fill="#EDBA6E"/>
<path d="M90.3172 45.1587H45.1586V90.3173H90.3172V45.1587Z" fill="#ED6E6E"/>
<path d="M24.361 70.278V76H65.9739V70.278H24.361ZM18.7161 75.9405V81.603H71.6187V75.9405H18.7338H18.7161ZM20.1273 50.3271L29.0532 48.4573L29.7588 41.9304L36.9383 38.5788L40.1135 34.1335C40.5898 34.2217 40.8191 39.3373 40.8191 39.3373L36.2504 47.4871L29.6883 62.0048L30.2351 70.5H61.0523L58.7767 63.222L61.4051 54.402L69.0256 54.3843L75.1467 35.774L69.0256 19.3688L55.0723 10.2136L35.58 8.76709C35.58 8.76709 35.5977 17.4284 35.5977 18.2222L27.1304 21.662C25.4899 26.072 18.4162 41.2072 16.2994 44.3648L20.1273 50.3271Z" fill="#1A1A1A"/>
<path d="M36.5385 28.6356L34.1686 26.2656L31.7987 28.6356L34.1686 31.0055L36.5385 28.6356Z" fill="#EDBA6E"/>
</g>
<defs>
<clipPath id="clip0">
<rect width="90.3172" height="90.3172" fill="white"/>
</clipPath>
</defs>
</svg>
