<svg width="38" height="38" viewBox="0 0 38 38" fill="none" xmlns="http://www.w3.org/2000/svg">
<path d="M27.3106 38.0002C26.0839 38.0002 24.8677 37.7833 23.6784 37.3512C18.4389 35.4479 13.5755 32.3479 9.61384 28.3863C5.65219 24.4247 2.55218 19.5613 0.648913 14.3218C0.0372983 12.638 -0.143195 10.8998 0.112628 9.15544C0.352271 7.5215 0.985186 5.93528 1.94302 4.56822C2.90508 3.19515 4.18768 2.05311 5.65211 1.26561C7.21377 0.425852 8.91829 0 10.7185 0C11.2784 0 11.7622 0.391193 11.8796 0.93861L13.7434 9.63666C13.8278 10.0305 13.7068 10.4403 13.422 10.7252L10.2372 13.9099C13.2416 19.8833 18.1167 24.7584 24.0901 27.7628L27.2748 24.578C27.5597 24.2932 27.9696 24.1723 28.3633 24.2566L37.0614 26.1204C37.6089 26.2377 38 26.7216 38 27.2815C38 29.0817 37.5742 30.7863 36.7343 32.348C35.9468 33.8124 34.8048 35.095 33.4317 36.0571C32.0647 37.0149 30.4785 37.6478 28.8445 37.8874C28.3325 37.9626 27.8205 38.0001 27.3106 38.0002ZM9.7697 2.42687C7.39515 2.689 5.28756 3.9336 3.888 5.93112C2.31417 8.17727 1.94717 10.94 2.88111 13.511C6.54026 23.584 14.4161 31.4599 24.4892 35.119C27.0601 36.053 29.8228 35.686 32.069 34.1121C34.0666 32.7126 35.3112 30.605 35.5733 28.2304L28.4975 26.7142L25.1714 30.0403C24.8174 30.3942 24.2797 30.4883 23.8268 30.2754C16.7622 26.9565 11.0437 21.238 7.72475 14.1733C7.51197 13.7204 7.60593 13.1826 7.95986 12.8288L11.2859 9.5027L9.7697 2.42687Z" fill="#EDBA6E"/>
</svg>
